HIERARCHY
ROOT Hips
{
	OFFSET 0.000000 0.000000 0.000000
	CHANNELS 6 Xposition Yposition Zposition Zrotation Xrotation Yrotation
	JOINT Spine
	{
		OFFSET -3.437117 15.703604 8.273344
		CHANNELS 3 Zrotation Xrotation Yrotation
		JOINT Chest
		{
			OFFSET -4.900135 15.320276 11.050729
			CHANNELS 3 Zrotation Xrotation Yrotation
			JOINT Neck
			{
				OFFSET -1.119888 7.581721 -6.345726
				CHANNELS 3 Zrotation Xrotation Yrotation
				JOINT Head
				{
					OFFSET -4.977465 6.752527 21.700776
					CHANNELS 3 Zrotation Xrotation Yrotation
					End Site
					{
						OFFSET 0.000000 -5.000000 0.000000
					}
				}
			}
			JOINT LeftShoulder
			{
				OFFSET 12.882547 1.888028 -2.331351
				CHANNELS 3 Zrotation Xrotation Yrotation
				JOINT LeftElbow
				{
					OFFSET 18.580696 -21.418223 -5.066691
					CHANNELS 3 Zrotation Xrotation Yrotation
					JOINT LeftWrist
					{
						OFFSET -1.744875 -25.913778 3.554617
						CHANNELS 3 Zrotation Xrotation Yrotation
						End Site
						{
							OFFSET 0.000000 -5.000000 0.000000
						}
					}
				}
			}
			JOINT RightShoulder
			{
				OFFSET -12.949517 -3.848804 -5.904585
				CHANNELS 3 Zrotation Xrotation Yrotation
				JOINT RightElbow
				{
					OFFSET -9.059105 -28.603331 -5.543518
					CHANNELS 3 Zrotation Xrotation Yrotation
					JOINT RightWrist
					{
						OFFSET 1.240234 -23.779691 6.576470
						CHANNELS 3 Zrotation Xrotation Yrotation
						End Site
						{
							OFFSET 0.000000 -5.000000 0.000000
						}
					}
				}
			}
		}
	}
	JOINT LeftHip
	{
		OFFSET 6.573718 -2.911238 7.731826
		CHANNELS 3 Zrotation Xrotation Yrotation
		JOINT LeftKnee
		{
			OFFSET 8.129577 -50.507865 -0.718189
			CHANNELS 3 Zrotation Xrotation Yrotation
			JOINT LeftAnkle
			{
				OFFSET 4.576934 -15.277524 -29.794586
				CHANNELS 3 Zrotation Xrotation Yrotation
				JOINT LeftToe
				{
					OFFSET 4.029998 -10.703194 11.412992
					CHANNELS 3 Zrotation Xrotation Yrotation
					End Site
					{
						OFFSET 0.000000 -5.000000 0.000000
					}
				}
			}
		}
	}
	JOINT RightHip
	{
		OFFSET -9.153689 -0.428160 6.279539
		CHANNELS 3 Zrotation Xrotation Yrotation
		JOINT RightKnee
		{
			OFFSET -11.655136 -39.831184 14.584667
			CHANNELS 3 Zrotation Xrotation Yrotation
			JOINT RightAnkle
			{
				OFFSET 5.741683 -35.106240 -16.860678
				CHANNELS 3 Zrotation Xrotation Yrotation
				JOINT RightToe
				{
					OFFSET -3.687692 -3.850819 20.609998
					CHANNELS 3 Zrotation Xrotation Yrotation
					End Site
					{
						OFFSET 0.000000 -5.000000 0.000000
					}
				}
			}
		}
	}
}
MOTION
Frames: 18
Frame Time: 0.008333
3.651162 95.619516 7.013274 7.540602 -32.974696 41.541090 -6.100682 -8.935286 1.148061 -13.160515 29.025877 -4.252862 -0.839323 -14.930671 -14.707410 -0.000000 0.000000 0.000000 -72.976878 -41.586900 -90.000000 -5.000000 0.000000 -0.493441 -0.000000 0.000000 0.000000 -16.202465 -68.757462 18.289429 -5.000000 -0.000000 -5.000000 -0.000000 0.000000 0.000000 28.572966 38.439922 -3.973547 -2.268713 0.000000 -5.000000 -20.000000 20.000000 -18.309252 -0.000000 0.000000 0.000000 17.399983 38.631860 -13.814190 -5.000000 0.000000 -3.303774 5.089921 20.000000 1.200269 -0.000000 0.000000 0.000000
3.455508 95.811482 7.397790 7.389089 -33.237325 41.370792 -5.887274 -8.866699 1.026038 -12.725311 28.694292 -4.023650 -1.056249 -15.306447 -14.349595 -0.000000 0.000000 0.000000 -70.744068 -41.551661 -90.000000 -5.000000 0.000000 -1.319474 -0.000000 0.000000 0.000000 -8.345143 -66.205519 21.846125 -5.000000 -0.000000 -5.000000 -0.000000 0.000000 0.000000 28.402887 38.114661 -3.879871 -1.731171 0.000000 -5.000000 -20.000000 20.000000 -16.965412 -0.000000 0.000000 0.000000 18.133236 38.926990 -14.028935 -5.000000 0.000000 -3.287444 5.085050 20.000000 1.169823 -0.000000 0.000000 0.000000
3.271165 96.015152 7.755634 7.280362 -33.414942 41.219739 -5.739012 -8.844625 0.931184 -12.305961 28.378325 -3.800214 -1.265986 -15.672715 -13.997580 -0.000000 0.000000 0.000000 -68.435733 -41.407523 -90.000000 -5.000000 0.000000 -1.811200 -0.000000 0.000000 0.000000 -1.874524 -63.210173 23.960098 -5.000000 -0.000000 -5.000000 -0.000000 0.000000 0.000000 28.078233 37.745914 -3.728083 -1.245473 0.000000 -5.000000 -20.000000 20.000000 -15.775034 -0.000000 0.000000 0.000000 18.790111 39.204931 -14.236551 -5.000000 0.000000 -3.277494 5.092711 20.000000 1.111233 -0.000000 0.000000 0.000000
3.100738 96.224953 8.087410 7.184802 -33.519166 41.007682 -5.659431 -8.866838 0.866871 -11.865933 28.051502 -3.562809 -1.476688 -16.036342 -13.622077 -0.000000 0.000000 0.000000 -66.058256 -41.167108 -90.000000 -5.000000 0.000000 -2.023792 -0.000000 0.000000 0.000000 3.418161 -59.920892 24.894093 -5.000000 -0.000000 -5.000000 -0.000000 0.000000 0.000000 27.573964 37.378520 -3.515538 -0.829417 0.000000 -5.000000 -20.000000 20.000000 -14.649131 -0.000000 0.000000 0.000000 19.374648 39.472044 -14.440102 -5.000000 0.000000 -3.273367 5.107171 20.000000 1.098317 -0.000000 0.000000 0.000000
2.945906 96.437784 8.397417 7.040540 -33.581088 40.593298 -5.642836 -8.924282 0.832639 -11.339990 27.669718 -3.274444 -1.702017 -16.409627 -13.171547 -0.000000 0.000000 0.000000 -63.608133 -40.849140 -90.000000 -5.000000 0.000000 -2.017724 -0.000000 0.000000 0.000000 7.770457 -56.478532 24.945477 -5.000000 -0.000000 -5.000000 -0.000000 0.000000 0.000000 26.883875 37.087469 -3.248273 -0.521646 0.000000 -5.000000 -20.000000 20.000000 -13.686525 -0.000000 0.000000 0.000000 19.875037 39.715671 -14.629066 -5.000000 0.000000 -3.264731 5.115887 20.000000 1.255620 -0.000000 0.000000 0.000000
2.806528 96.650606 8.692451 6.848837 -33.619266 39.979714 -5.677217 -9.001146 0.826262 -10.726736 27.236526 -2.932161 -1.940903 -16.792515 -12.645963 -0.000000 0.000000 0.000000 -61.138887 -40.431569 -89.536414 -5.000000 0.000000 -1.864617 -0.000000 0.000000 0.000000 11.350283 -52.981464 24.348748 -5.000000 -0.000000 -5.000000 -0.000000 0.000000 0.000000 26.036553 36.890354 -2.937659 -0.280026 0.000000 -5.000000 -20.000000 20.000000 -13.106970 -0.000000 0.000000 0.000000 20.277248 39.941199 -14.805079 -5.000000 0.000000 -3.254168 5.115734 20.000000 1.607841 -0.000000 0.000000 0.000000
2.678438 96.864381 8.976717 6.629630 -33.636304 39.236756 -5.748050 -9.092664 0.839423 -10.055731 26.776339 -2.550774 -2.185870 -17.179041 -12.069702 -0.000000 0.000000 0.000000 -58.724116 -39.891635 -84.333234 -5.000000 0.000000 -1.624919 -0.000000 0.000000 0.000000 14.290993 -49.506930 23.295893 -5.000000 -0.000000 -5.000000 -0.000000 0.000000 0.000000 25.122424 36.790506 -2.613874 -0.036323 0.000000 -5.000000 -20.000000 20.000000 -13.255765 -0.000000 0.000000 0.000000 20.609826 40.159272 -14.975681 -5.000000 0.000000 -3.247819 5.108354 20.000000 2.114848 -0.000000 0.000000 0.000000
2.560616 97.079010 9.257047 6.430741 -33.639742 38.470328 -5.842882 -9.181313 0.870342 -9.372414 26.321324 -2.155673 -2.426930 -17.560326 -11.478970 -0.000000 0.000000 0.000000 -56.435337 -39.219813 -79.331081 -5.000000 0.000000 -1.343934 -0.000000 0.000000 0.000000 16.708004 -46.116348 21.944504 -5.000000 -0.000000 -5.000000 -0.000000 0.000000 0.000000 24.161625 36.728996 -2.278189 0.081227 0.000000 -5.000000 -20.000000 20.000000 -13.641847 -0.000000 0.000000 0.000000 20.875048 40.389755 -15.154501 -5.000000 0.000000 -3.254582 5.099220 20.000000 2.690544 -0.000000 0.000000 0.000000
2.448388 97.296063 9.527791 5.947737 -33.312529 37.591626 -6.071836 -9.906742 0.739265 -8.798183 26.300499 -1.720093 -2.661318 -18.048128 -11.146553 -0.000000 0.000000 0.000000 -54.503410 -38.657642 -75.355311 -5.000000 0.000000 -1.102123 -0.000000 0.000000 0.000000 17.304377 -43.980787 20.740800 -5.000000 -0.000000 -5.000000 -0.000000 0.000000 0.000000 23.093779 36.270901 -1.888785 0.047187 0.000000 -5.000000 -20.000000 20.000000 -13.944576 -0.000000 0.000000 0.000000 20.971293 40.253380 -15.060758 -5.000000 0.000000 -3.279869 5.098377 20.000000 3.181795 -0.000000 0.000000 0.000000
2.339658 97.514969 9.790510 5.567594 -33.547127 36.941540 -5.913129 -9.595578 0.754056 -8.477528 25.873355 -1.593233 -2.750307 -18.232322 -11.013654 -0.000000 0.000000 0.000000 -53.878122 -38.184431 -73.433459 -5.000000 0.000000 -1.061419 -0.000000 0.000000 0.000000 17.324126 -43.735807 20.587739 -5.000000 -0.000000 -5.000000 -0.000000 0.000000 0.000000 22.599938 36.149808 -1.715722 -0.097153 0.000000 -5.000000 -20.000000 20.000000 -14.313295 -0.000000 0.000000 0.000000 21.595984 40.545076 -15.305286 -5.000000 0.000000 -3.316905 5.104564 20.000000 3.597121 -0.000000 0.000000 0.000000
2.234875 97.732312 10.039705 5.240206 -33.727182 36.376978 -5.790166 -9.310155 0.782426 -8.198314 25.473907 -1.488598 -2.830220 -18.407974 -10.916242 -0.000000 0.000000 0.000000 -53.282615 -37.685358 -71.514506 -5.000000 0.000000 -1.010288 -0.000000 0.000000 0.000000 17.341153 -43.482475 20.428700 -5.000000 -0.000000 -5.000000 -0.000000 0.000000 0.000000 22.089530 35.970430 -1.536140 -0.345962 0.000000 -5.000000 -20.000000 20.000000 -14.642064 -0.000000 0.000000 0.000000 22.153646 40.799277 -15.524475 -5.000000 0.000000 -3.353248 5.118221 20.000000 3.936962 -0.000000 0.000000 0.000000
2.133835 97.946840 10.278924 4.955164 -33.866589 35.876633 -5.695598 -9.043426 0.822359 -7.949953 25.094817 -1.400470 -2.903461 -18.577261 -10.845289 -0.000000 0.000000 0.000000 -52.709514 -37.165604 -69.599201 -5.000000 0.000000 -0.950180 -0.000000 0.000000 0.000000 17.356253 -43.222889 20.265330 -5.000000 -0.000000 -5.000000 -0.000000 0.000000 0.000000 21.568447 35.744340 -1.353318 -0.672959 0.000000 -5.000000 -20.000000 20.000000 -14.969706 -0.000000 0.000000 0.000000 22.663495 41.035716 -15.732416 -5.000000 0.000000 -3.396707 5.137734 20.000000 4.226485 -0.000000 0.000000 0.000000
2.040033 98.154980 10.498901 4.698811 -33.939951 35.388782 -5.650936 -8.818708 0.879910 -7.710761 24.722940 -1.315952 -2.974293 -18.744322 -10.783746 -0.000000 0.000000 0.000000 -52.148911 -36.631072 -67.688213 -5.000000 0.000000 -0.882463 -0.000000 0.000000 0.000000 17.369800 -42.960821 20.100213 -5.000000 -0.000000 -5.000000 -0.000000 0.000000 0.000000 20.985449 35.459235 -1.150672 -1.073430 0.000000 -5.000000 -20.000000 20.000000 -15.459581 -0.000000 0.000000 0.000000 23.076878 41.215260 -15.894967 -5.000000 0.000000 -3.430668 5.156762 20.000000 4.517763 -0.000000 0.000000 0.000000
1.952307 98.356934 10.697127 4.468466 -33.938870 34.915226 -5.657601 -8.645798 0.952596 -7.481945 24.358722 -1.235980 -3.042600 -18.908982 -10.732297 -0.000000 0.000000 0.000000 -51.601179 -36.082821 -65.784008 -5.000000 0.000000 -0.810584 -0.000000 0.000000 0.000000 17.382063 -42.696178 19.933389 -5.000000 -0.000000 -5.000000 -0.000000 0.000000 0.000000 20.363324 35.118875 -0.937267 -1.510991 0.000000 -5.000000 -20.000000 20.000000 -15.968138 -0.000000 0.000000 0.000000 23.393927 41.330084 -16.003859 -5.000000 0.000000 -3.457498 5.176247 20.000000 4.786066 -0.000000 0.000000 0.000000
1.872704 98.547208 10.869648 4.249557 -33.852828 34.411396 -5.726191 -8.536466 1.043528 -7.243611 23.990929 -1.148218 -3.112004 -19.074888 -10.675982 -0.000000 0.000000 0.000000 -51.060364 -35.524608 -63.888416 -5.000000 0.000000 -0.736671 -0.000000 0.000000 0.000000 17.392813 -42.432189 19.766887 -5.000000 -0.000000 -5.000000 -0.000000 0.000000 0.000000 19.663413 34.730815 -0.701986 -2.003807 0.000000 -5.000000 -20.000000 20.000000 -16.547895 -0.000000 0.000000 0.000000 23.579736 41.359290 -16.038824 -5.000000 0.000000 -3.469994 5.193973 20.000000 5.068180 -0.000000 0.000000 0.000000
1.792976 98.724738 11.006334 3.984114 -33.653698 33.813199 -5.855899 -8.533519 1.135529 -6.967915 23.604698 -1.034901 -3.187272 -19.246988 -10.594577 -0.000000 0.000000 0.000000 -50.520931 -34.959881 -62.003862 -5.000000 0.000000 -0.662485 -0.000000 0.000000 0.000000 17.401131 -42.173126 19.603198 -5.000000 -0.000000 -5.000000 -0.000000 0.000000 0.000000 18.876066 34.263802 -0.443356 -2.547104 0.000000 -5.000000 -20.000000 20.000000 -17.158492 -0.000000 0.000000 0.000000 23.621325 41.253862 -15.960051 -5.000000 0.000000 -3.468421 5.208205 20.000000 5.385733 -0.000000 0.000000 0.000000
1.711290 98.884578 11.124615 3.684477 -33.392847 33.156107 -6.014498 -8.592505 1.223444 -6.666491 23.207277 -0.902947 -3.266102 -19.423038 -10.497294 -0.000000 0.000000 0.000000 -49.989771 -34.386917 -60.134070 -4.332431 0.000000 -0.591712 -0.000000 0.000000 0.000000 17.406907 -41.916991 19.441016 -5.000000 -0.000000 -5.000000 -0.000000 0.000000 0.000000 18.068711 33.755609 -0.185473 -3.121024 0.000000 -5.000000 -20.000000 20.000000 -17.784100 -0.000000 0.000000 0.000000 23.596915 41.065119 -15.812796 -5.000000 0.000000 -3.454754 5.218215 20.000000 5.700054 -0.000000 0.000000 0.000000
1.623957 99.029536 11.223853 3.357296 -33.066201 32.478332 -6.193637 -8.718405 1.299240 -6.356296 22.808287 -0.762949 -3.345443 -19.599934 -10.396832 -0.000000 0.000000 0.000000 -49.473221 -33.804439 -58.282191 -3.499570 1.297995 -0.527668 -0.000000 0.000000 0.000000 17.410517 -41.661102 19.278747 -5.000000 -0.000000 -5.000000 -0.000000 0.000000 0.000000 17.273081 33.190776 0.060475 -3.691866 0.000000 -5.000000 -20.000000 20.000000 -18.339984 -0.000000 0.000000 0.000000 23.518422 40.799464 -15.603837 -5.000000 0.000000 -3.438221 5.227109 20.000000 6.002555 -0.000000 0.000000 0.000000
